<svg width="87" height="86" viewBox="0 0 87 86" fill="none" xmlns="http://www.w3.org/2000/svg">
<g clip-path="url(#clip0_627_973)">
<path d="M32.9576 86H15.1663C11.3649 86 7.71917 84.4899 5.03114 81.8019C2.34312 79.1138 0.833008 75.4681 0.833008 71.6667V53.75C0.833008 49.9486 2.34312 46.3028 5.03114 43.6148C7.71917 40.9268 11.3649 39.4167 15.1663 39.4167H46.9039C48.8432 39.4176 50.7495 39.9191 52.4381 40.8727C54.1268 41.8262 55.5407 43.1996 56.5431 44.8597L68.0707 32.1927C69.0242 31.1441 70.175 30.2938 71.4573 29.6903C72.7396 29.0868 74.1282 28.7418 75.5439 28.6753C76.9596 28.6087 78.3745 28.8218 79.7078 29.3024C81.041 29.783 82.2665 30.5216 83.3142 31.476C85.4046 33.3964 86.6573 36.0608 86.8028 38.8957C86.9482 41.7306 85.9747 44.5093 84.0918 46.6335L59.7251 73.9994C56.3607 77.7727 52.2369 80.7924 47.6239 82.8605C43.0109 84.9287 38.013 85.9985 32.9576 86ZM15.1663 46.5833C13.2656 46.5833 11.4428 47.3384 10.0987 48.6824C8.75473 50.0264 7.99967 51.8493 7.99967 53.75V71.6667C7.99967 73.5674 8.75473 75.3903 10.0987 76.7343C11.4428 78.0783 13.2656 78.8333 15.1663 78.8333H32.9576C36.9993 78.8317 40.9951 77.976 44.683 76.3222C48.3709 74.6685 51.6677 72.254 54.3573 69.2372L78.7418 41.8677C79.3749 41.1545 79.7026 40.2213 79.6544 39.2689C79.6061 38.3166 79.1858 37.4212 78.4838 36.7757C77.7701 36.1341 76.8342 35.796 75.8752 35.8333C75.3997 35.8534 74.9331 35.9681 74.5024 36.1705C74.0718 36.3729 73.6857 36.659 73.3668 37.0123L57.507 54.4667C56.8107 56.3937 55.6043 58.0955 54.0165 59.3905C52.4286 60.6855 50.519 61.5251 48.4913 61.8197L29.9978 64.4642C29.0569 64.5991 28.101 64.3548 27.3403 63.7849C26.5796 63.2151 26.0764 62.3664 25.9414 61.4255C25.8065 60.4846 26.0508 59.5287 26.6207 58.768C27.1905 58.0073 28.0392 57.5041 28.9801 57.3692L47.4773 54.7282C48.504 54.5847 49.438 54.0568 50.0906 53.2512C50.7431 52.4456 51.0656 51.4223 50.9928 50.3881C50.92 49.354 50.4573 48.386 49.6984 47.6797C48.9394 46.9735 47.9407 46.5816 46.9039 46.5833H15.1663ZM40.2497 32.5152C38.6256 32.5195 37.0488 31.9682 35.7813 30.9528C29.6466 26.0293 22.333 18.6333 22.333 11.4667C22.245 8.52248 23.3266 5.66326 25.3412 3.5144C27.3557 1.36555 30.1393 0.101954 33.083 0C35.761 0.0104305 38.3303 1.06001 40.2497 2.92758C42.169 1.06001 44.7384 0.0104305 47.4163 0C50.3601 0.101954 53.1436 1.36555 55.1582 3.5144C57.1728 5.66326 58.2543 8.52248 58.1663 11.4667C58.1663 18.6333 50.8528 26.0293 44.7145 30.9564C43.4474 31.9698 41.8721 32.5197 40.2497 32.5152V32.5152ZM33.083 7.16667C32.0415 7.27117 31.0826 7.7802 30.4125 8.58432C29.7424 9.38843 29.4146 10.4234 29.4997 11.4667C29.4997 14.6917 33.6241 20.0308 40.2712 25.3664C46.8753 20.0308 50.9997 14.6917 50.9997 11.4667C51.0847 10.4234 50.7569 9.38843 50.0868 8.58432C49.4167 7.7802 48.4578 7.27117 47.4163 7.16667C46.3748 7.27117 45.416 7.7802 44.7459 8.58432C44.0758 9.38843 43.748 10.4234 43.833 11.4667C43.833 12.417 43.4555 13.3285 42.7835 14.0005C42.1115 14.6725 41.2 15.05 40.2497 15.05C39.2993 15.05 38.3879 14.6725 37.7159 14.0005C37.0439 13.3285 36.6663 12.417 36.6663 11.4667C36.7514 10.4234 36.4236 9.38843 35.7535 8.58432C35.0834 7.7802 34.1245 7.27117 33.083 7.16667V7.16667Z" fill="black"/>
</g>
<defs>
<clipPath id="clip0_627_973">
<rect width="86" height="86" fill="white" transform="translate(0.833008)"/>
</clipPath>
</defs>
</svg>
