<svg width="87" height="86" viewBox="0 0 87 86" fill="none" xmlns="http://www.w3.org/2000/svg">
<path d="M61.4749 14.4066C60.6248 10.3796 58.4163 6.76728 55.2196 4.17498C52.0229 1.58268 48.0323 0.167969 43.9166 0.167969C39.8009 0.167969 35.8103 1.58268 32.6136 4.17498C29.4169 6.76728 27.2084 10.3796 26.3583 14.4066C23.0321 14.6699 19.8271 15.7725 17.0428 17.6111C14.2586 19.4498 11.9862 21.9646 10.438 24.9202C8.88982 27.8759 8.11652 31.1759 8.19038 34.5116C8.26425 37.8474 9.18287 41.1099 10.8604 43.9941L33.2347 80.0282C34.3709 81.8336 35.9464 83.3216 37.8139 84.3528C39.6813 85.3841 41.7798 85.925 43.913 85.925C46.0463 85.925 48.1447 85.3841 50.0122 84.3528C51.8796 83.3216 53.4551 81.8336 54.5914 80.0282L77.0266 43.9081C78.6844 41.0223 79.5855 37.7641 79.6459 34.4366C79.7063 31.109 78.9242 27.8202 77.3722 24.8762C75.8203 21.9321 73.5489 19.4283 70.7694 17.5978C67.9899 15.7673 64.7926 14.6695 61.4749 14.4066V14.4066ZM72.5833 34.0432C72.5758 34.7322 72.5086 35.4191 72.3826 36.0965C64.5911 37.9144 56.6422 38.9752 48.6466 39.2641C41.5122 20.2366 71.1249 13.7687 72.5833 34.0432ZM43.9166 7.16823C46.2922 7.17732 48.5978 7.97303 50.4733 9.43104C52.3488 10.889 53.6885 12.9272 54.2832 15.2271C50.0927 16.5086 46.4464 19.1454 43.9166 22.7235C41.3868 19.1454 37.7405 16.5086 33.55 15.2271C34.1447 12.9272 35.4844 10.889 37.3599 9.43104C39.2354 7.97303 41.5411 7.17732 43.9166 7.16823V7.16823ZM27.7916 21.5016C29.8858 21.5186 31.9428 22.0572 33.7766 23.0688C35.6104 24.0804 37.1632 25.533 38.2946 27.2954C39.426 29.0578 40.1004 31.0743 40.2568 33.1628C40.4131 35.2513 40.0466 37.3458 39.1902 39.257C31.1975 38.9447 23.2512 37.889 15.4542 36.1036C15.1554 34.3099 15.2503 32.4726 15.7323 30.7191C16.2143 28.9657 17.0718 27.338 18.2454 25.949C19.419 24.5599 20.8807 23.4427 22.5291 22.6747C24.1775 21.9068 25.9731 21.5065 27.7916 21.5016V21.5016ZM48.4961 76.2764C47.9915 77.0288 47.3095 77.6453 46.5102 78.0717C45.7109 78.4981 44.8189 78.7211 43.913 78.7211C43.0071 78.7211 42.1152 78.4981 41.3159 78.0717C40.5166 77.6453 39.8345 77.0288 39.3299 76.2764L19.4424 44.2414C35.6195 47.2012 52.1994 47.2012 68.3764 44.2414L48.4961 76.2764Z" fill="black"/>
</svg>
