<?xml version="1.0" standalone="no"?>
<!DOCTYPE svg PUBLIC "-//W3C//DTD SVG 20010904//EN"
 "http://www.w3.org/TR/2001/REC-SVG-20010904/DTD/svg10.dtd">
<svg version="1.0" xmlns="http://www.w3.org/2000/svg"
 width="938.000000pt" height="563.000000pt" viewBox="0 0 938.000000 563.000000"
 preserveAspectRatio="xMidYMid meet">

<g transform="translate(0.000000,563.000000) scale(0.100000,-0.100000)"
fill="#000000" stroke="none">
<path d="M4368 5455 c-484 -59 -949 -254 -1338 -563 -117 -93 -323 -298 -414
-412 -426 -534 -632 -1211 -575 -1887 44 -522 248 -1034 575 -1443 85 -105
294 -316 394 -397 397 -319 871 -520 1369 -578 252 -30 602 -15 843 34 784
162 1462 674 1826 1381 310 601 383 1281 207 1925 -48 176 -95 297 -185 480
-133 271 -282 478 -500 696 -317 317 -674 534 -1095 663 -176 55 -277 75 -283
58 -4 -14 -32 -16 -32 -2 0 6 -24 10 -52 10 -59 0 -105 19 -53 21 17 1 -13 7
-65 15 -122 16 -484 16 -622 -1z m634 -60 c441 -51 895 -235 1250 -504 293
-222 568 -541 737 -856 11 -22 21 -34 21 -27 0 32 20 -3 21 -36 0 -26 3 -32 8
-19 6 17 8 16 19 -9 10 -20 10 -29 2 -34 -8 -5 -7 -12 4 -23 9 -8 16 -22 16
-29 0 -7 14 -49 30 -92 306 -795 214 -1677 -248 -2378 -137 -207 -346 -438
-537 -593 -311 -253 -720 -446 -1111 -524 -221 -45 -345 -54 -598 -48 -275 7
-433 31 -673 103 -785 236 -1419 837 -1698 1608 -279 775 -172 1645 287 2328
134 201 351 436 543 590 382 306 872 502 1375 551 103 10 438 5 552 -8z"/>
<path d="M4534 5359 c-496 -27 -1006 -218 -1400 -524 -529 -413 -868 -993
-970 -1660 -26 -166 -26 -551 -1 -715 92 -602 371 -1128 812 -1530 391 -356
865 -575 1400 -645 125 -17 429 -22 551 -10 204 20 455 76 629 140 811 300
1415 975 1614 1805 54 222 65 331 65 595 0 264 -11 373 -65 595 -88 369 -262
720 -502 1015 -80 99 -275 292 -382 378 -396 319 -914 525 -1390 552 -55 3
-127 7 -160 9 -33 2 -123 0 -201 -5z m31 -309 c3 -5 -18 -50 -46 -100 l-52
-91 10 -80 c10 -87 5 -99 -38 -99 -30 0 -32 5 -45 110 -6 52 -11 60 -82 134
-72 74 -75 79 -57 92 36 26 61 17 113 -42 l49 -57 28 49 c52 92 54 94 85 94
16 0 31 -4 35 -10z m745 -77 c85 -21 122 -107 72 -166 -12 -14 -13 -22 -4 -43
30 -63 -7 -137 -74 -150 -32 -6 -210 35 -245 57 -9 5 -1 46 31 160 23 85 46
162 51 171 8 15 14 15 76 -3 38 -11 79 -22 93 -26z m-1284 -46 c7 -23 -10 -40
-63 -59 -18 -7 -33 -16 -33 -20 0 -4 23 -65 51 -135 48 -120 50 -128 32 -140
-40 -30 -55 -14 -107 117 -27 69 -51 127 -52 129 -2 2 -21 -4 -44 -13 -22 -9
-47 -16 -56 -16 -18 0 -36 41 -23 55 15 15 263 112 276 107 7 -2 15 -13 19
-25z m1705 -117 c10 -6 19 -18 19 -26 0 -8 -29 -65 -65 -125 -36 -61 -65 -114
-65 -117 0 -4 41 -31 90 -60 50 -29 90 -56 90 -61 0 -5 -8 -19 -18 -31 l-19
-23 -121 73 c-67 40 -122 77 -122 83 0 10 142 257 163 285 12 15 22 15 48 2z
m-2223 -122 c22 -22 13 -36 -40 -66 -70 -39 -96 -68 -81 -90 13 -20 31 -18 98
10 75 31 122 28 157 -11 70 -78 6 -183 -147 -241 -18 -7 -28 -5 -40 6 -26 27
-17 40 49 73 73 36 102 70 86 101 -14 26 -28 25 -100 -5 -97 -41 -150 -31
-176 32 -27 62 16 133 111 181 46 24 66 27 83 10z m2718 -247 c84 -38 136
-139 114 -219 -12 -48 -59 -106 -102 -128 -75 -39 -186 -6 -240 71 -52 74 -50
156 7 222 62 72 139 91 221 54z m-1266 -67 c454 -79 854 -353 1087 -745 162
-275 231 -547 221 -877 -8 -238 -58 -435 -164 -647 -214 -426 -609 -733 -1073
-836 -410 -90 -848 -11 -1198 217 -290 188 -517 471 -631 787 -59 162 -84 304
-90 497 -3 149 -1 194 18 305 119 704 670 1225 1390 1315 102 12 324 4 440
-16z m-1763 -110 c21 -17 49 -51 62 -77 29 -59 23 -115 -19 -179 -89 -134
-272 -116 -334 34 -19 44 -19 60 -5 111 12 45 71 114 114 134 18 8 53 12 87
10 46 -3 65 -9 95 -33z m3392 -308 c15 -8 42 -31 58 -50 118 -133 26 -327
-148 -314 -43 3 -66 11 -94 32 -42 33 -85 114 -85 164 0 37 23 97 48 126 44
50 162 72 221 42z m-3772 -178 c13 -12 26 -39 29 -60 7 -43 9 -43 84 -23 73
20 80 19 80 -8 0 -38 -21 -54 -100 -72 -132 -31 -142 -50 -50 -91 60 -27 69
-40 54 -78 -3 -9 -12 -16 -20 -16 -18 0 -295 120 -312 135 -10 9 -5 28 24 95
42 97 48 106 89 132 37 24 88 18 122 -14z m4047 -380 c10 -40 7 -45 -59 -109
-36 -34 -65 -65 -65 -68 0 -4 38 -22 85 -41 65 -26 87 -39 91 -56 14 -54 9
-57 -166 -92 -157 -31 -165 -32 -178 -15 -7 10 -11 27 -10 38 3 17 19 23 103
42 55 11 102 22 105 22 3 1 -18 12 -45 24 -70 31 -75 35 -75 65 0 17 14 40 42
69 48 49 44 51 -62 28 -99 -22 -117 -20 -123 13 -3 15 -1 31 4 37 12 12 257
62 310 64 30 1 38 -3 43 -21z m-4315 -87 c11 -7 11 -22 -1 -94 l-15 -85 30 -6
c17 -3 32 -4 35 -1 3 2 10 33 16 67 11 62 12 63 45 66 l34 3 -7 -58 c-4 -32
-8 -67 -9 -78 -2 -16 7 -20 48 -27 86 -14 95 -17 95 -37 0 -34 -11 -51 -33
-51 -12 0 -88 12 -170 27 -104 19 -151 31 -155 42 -5 14 23 215 34 232 7 11
35 11 53 0z m4216 -716 c166 -33 165 -32 165 -58 0 -49 -11 -53 -108 -34 -49
9 -95 17 -102 17 -8 0 5 -20 29 -44 38 -38 42 -48 36 -74 -5 -25 -16 -35 -61
-53 -30 -13 -51 -26 -47 -30 5 -3 50 -14 101 -24 50 -10 93 -23 93 -29 2 -21
-3 -51 -10 -59 -4 -4 -74 6 -157 23 -217 43 -197 36 -190 73 8 42 18 49 104
82 39 16 72 32 72 36 0 4 -27 33 -60 65 -48 46 -60 64 -60 89 0 38 16 56 44
50 12 -3 80 -16 151 -30z m-3941 -92 c10 -62 16 -119 13 -128 -9 -21 -54 -19
-61 3 -3 9 -10 48 -17 85 l-11 68 -32 -3 c-30 -3 -31 -4 -27 -48 10 -101 9
-105 -24 -105 -29 0 -30 2 -43 64 -7 36 -14 67 -17 69 -2 2 -33 -1 -69 -8 -36
-7 -69 -9 -75 -5 -15 9 -14 65 2 70 24 10 292 53 317 52 24 -2 26 -7 44 -114z
m73 -315 c6 -7 27 -53 48 -102 34 -81 36 -92 26 -127 -22 -73 -107 -104 -164
-59 -14 11 -27 20 -29 20 -2 0 -20 -29 -39 -65 -18 -36 -39 -65 -46 -65 -7 0
-19 12 -27 28 -14 26 -12 31 30 110 30 54 43 89 39 102 -6 19 -8 19 -62 -5
-65 -29 -88 -31 -97 -9 -17 44 -9 50 147 117 83 36 155 66 158 66 4 1 11 -5
16 -11z m3698 -167 c107 -50 143 -152 90 -258 -59 -118 -194 -146 -292 -60
-67 59 -80 135 -39 222 26 57 47 78 96 99 47 20 97 19 145 -3z m-3464 -322
c73 -25 138 -115 139 -192 0 -75 -63 -156 -138 -177 -55 -15 -73 -13 -129 15
-70 35 -106 88 -111 165 -6 81 26 137 100 174 57 29 88 32 139 15z m3109 -171
c130 -67 147 -218 36 -316 -34 -29 -89 -52 -129 -52 -51 0 -134 57 -163 112
-23 44 -18 125 11 173 54 94 156 128 245 83z m-2659 -237 c24 -15 57 -42 73
-59 26 -28 28 -35 18 -57 -14 -31 -33 -32 -58 -4 -27 31 -95 79 -110 79 -7 0
-18 -9 -24 -20 -9 -17 -4 -27 28 -62 59 -66 72 -89 72 -131 0 -53 -43 -97 -96
-97 -52 0 -115 33 -164 86 -43 47 -47 69 -18 88 15 9 26 3 65 -36 57 -55 87
-71 113 -63 34 11 23 48 -30 109 -65 74 -70 121 -19 169 40 37 90 36 150 -2z
m2078 -275 l72 -124 92 54 c90 52 92 53 111 35 10 -11 16 -26 13 -34 -5 -14
-226 -147 -244 -147 -6 0 -50 68 -98 152 l-87 151 23 18 c13 10 29 19 35 19 6
0 44 -56 83 -124z m-1653 36 c122 -49 139 -64 115 -102 -9 -13 -15 -13 -43 -1
-76 31 -71 35 -127 -106 -48 -122 -52 -128 -77 -126 -51 4 -50 16 5 154 28 72
50 133 49 134 -2 1 -24 12 -50 23 -50 22 -55 30 -37 63 12 23 6 25 165 -39z
m1319 -68 c27 -18 47 -67 39 -98 -4 -16 1 -25 19 -35 54 -29 62 -103 17 -154
-25 -28 -46 -39 -125 -61 -52 -14 -103 -26 -113 -26 -16 0 -27 27 -66 166 -26
92 -45 169 -42 171 3 3 40 16 83 28 92 28 155 31 188 9z m-988 -30 c14 -4 36
-30 59 -71 l36 -65 57 56 c50 49 61 56 84 50 15 -3 30 -11 33 -16 4 -6 -27
-44 -69 -87 -73 -74 -75 -78 -82 -136 -11 -102 -13 -105 -52 -105 l-36 0 7 90
7 90 -51 90 c-59 105 -58 121 7 104z"/>
<path d="M5191 4900 c-9 -29 -8 -32 17 -42 15 -5 45 -13 68 -15 32 -4 42 -2
47 11 11 28 -4 45 -47 56 -22 6 -48 13 -57 16 -12 3 -20 -5 -28 -26z"/>
<path d="M5151 4759 c-7 -23 -11 -42 -9 -44 2 -1 33 -10 70 -20 77 -20 101
-12 96 34 -3 22 -12 29 -68 48 -36 12 -68 22 -71 22 -3 1 -11 -17 -18 -40z"/>
<path d="M6099 4367 c-45 -30 -74 -84 -65 -122 4 -15 22 -43 41 -62 27 -27 41
-33 75 -33 36 0 48 6 81 39 32 32 39 46 39 78 0 46 -26 85 -70 108 -40 21 -61
19 -101 -8z"/>
<path d="M3920 2815 l0 -1195 290 0 290 0 0 425 0 425 398 2 397 3 3 178 2
177 -460 0 -460 0 0 -60 0 -60 395 0 395 0 0 -55 0 -55 -397 -2 -398 -3 -3
-423 -2 -422 -165 0 -165 0 0 1130 0 1130 -60 0 -60 0 0 -1195z"/>
<path d="M4145 3993 c-3 -10 -5 -498 -3 -1085 l3 -1068 63 0 62 0 0 1020 0
1020 535 0 535 0 0 -165 0 -165 -365 0 -365 0 0 -60 0 -60 425 0 425 0 0 290
0 290 -654 0 c-611 0 -654 -1 -661 -17z"/>
<path d="M4375 3778 c-3 -7 -4 -200 -3 -428 l3 -415 460 0 460 0 3 63 3 62
-401 0 -400 0 0 300 0 300 368 2 367 3 0 60 0 60 -428 3 c-337 2 -429 0 -432
-10z"/>
<path d="M3050 4223 c-26 -9 -62 -47 -75 -77 -16 -37 -5 -80 32 -118 72 -75
193 -24 193 83 0 71 -86 135 -150 112z"/>
<path d="M6458 3880 c-72 -39 -85 -116 -32 -179 46 -55 128 -49 180 12 22 26
25 38 21 75 -10 88 -93 133 -169 92z"/>
<path d="M2712 3718 c-5 -7 -19 -34 -30 -59 l-20 -46 35 -17 c20 -9 37 -16 38
-14 12 14 45 91 45 106 0 36 -46 57 -68 30z"/>
<path d="M2818 2087 c-34 -13 -34 -15 -7 -77 22 -52 50 -70 74 -50 21 17 19
54 -5 100 -22 43 -22 43 -62 27z"/>
<path d="M6458 1950 c-26 -16 -58 -75 -58 -109 0 -21 10 -42 33 -66 59 -65
150 -57 188 16 29 58 25 86 -20 130 -33 34 -45 39 -82 39 -24 0 -52 -5 -61
-10z"/>
<path d="M2999 1591 c-45 -44 -51 -87 -21 -134 28 -41 53 -56 96 -57 50 0 100
37 116 85 14 42 7 66 -32 111 -26 29 -36 34 -75 34 -39 0 -51 -5 -84 -39z"/>
<path d="M6120 1466 c-43 -14 -80 -67 -80 -114 0 -27 9 -43 39 -73 32 -33 45
-39 79 -39 82 0 144 89 109 156 -32 62 -89 89 -147 70z"/>
<path d="M5185 916 c-22 -6 -39 -15 -37 -19 1 -4 2 -13 2 -19 1 -35 16 -40 73
-23 55 16 71 32 61 60 -7 18 -43 18 -99 1z"/>
<path d="M5245 791 c-33 -10 -60 -22 -60 -27 1 -19 17 -74 22 -74 15 0 120 34
131 42 19 16 14 56 -7 68 -11 5 -21 10 -23 9 -2 0 -30 -9 -63 -18z"/>
<path d="M6705 4590 c10 -11 20 -20 23 -20 3 0 -3 9 -13 20 -10 11 -20 20 -23
20 -3 0 3 -9 13 -20z"/>
<path d="M6755 4530 c10 -11 20 -20 23 -20 3 0 -3 9 -13 20 -10 11 -20 20 -23
20 -3 0 3 -9 13 -20z"/>
<path d="M7321 3354 c0 -11 3 -14 6 -6 3 7 2 16 -1 19 -3 4 -6 -2 -5 -13z"/>
<path d="M2031 3244 c0 -11 3 -14 6 -6 3 7 2 16 -1 19 -3 4 -6 -2 -5 -13z"/>
<path d="M7341 3244 c0 -11 3 -14 6 -6 3 7 2 16 -1 19 -3 4 -6 -2 -5 -13z"/>
<path d="M2021 3164 c0 -11 3 -14 6 -6 3 7 2 16 -1 19 -3 4 -6 -2 -5 -13z"/>
<path d="M7351 3164 c0 -11 3 -14 6 -6 3 7 2 16 -1 19 -3 4 -6 -2 -5 -13z"/>
<path d="M7362 3090 c0 -14 2 -19 5 -12 2 6 2 18 0 25 -3 6 -5 1 -5 -13z"/>
<path d="M7373 2950 c0 -30 2 -43 4 -27 2 15 2 39 0 55 -2 15 -4 2 -4 -28z"/>
<path d="M2003 2945 c0 -22 2 -30 4 -17 2 12 2 30 0 40 -3 9 -5 -1 -4 -23z"/>
<path d="M2003 2685 c0 -27 2 -38 4 -22 2 15 2 37 0 50 -2 12 -4 0 -4 -28z"/>
<path d="M7373 2685 c0 -27 2 -38 4 -22 2 15 2 37 0 50 -2 12 -4 0 -4 -28z"/>
<path d="M2011 2544 c0 -11 3 -14 6 -6 3 7 2 16 -1 19 -3 4 -6 -2 -5 -13z"/>
<path d="M7361 2544 c0 -11 3 -14 6 -6 3 7 2 16 -1 19 -3 4 -6 -2 -5 -13z"/>
<path d="M2021 2464 c0 -11 3 -14 6 -6 3 7 2 16 -1 19 -3 4 -6 -2 -5 -13z"/>
<path d="M2031 2384 c0 -11 3 -14 6 -6 3 7 2 16 -1 19 -3 4 -6 -2 -5 -13z"/>
<path d="M7341 2384 c0 -11 3 -14 6 -6 3 7 2 16 -1 19 -3 4 -6 -2 -5 -13z"/>
<path d="M2051 2274 c0 -11 3 -14 6 -6 3 7 2 16 -1 19 -3 4 -6 -2 -5 -13z"/>
<path d="M2520 1216 c0 -2 8 -10 18 -17 15 -13 16 -12 3 4 -13 16 -21 21 -21
13z"/>
<path d="M2600 1116 c0 -2 8 -10 18 -17 15 -13 16 -12 3 4 -13 16 -21 21 -21
13z"/>
<path d="M2670 1035 c13 -14 26 -25 28 -25 3 0 -5 11 -18 25 -13 14 -26 25
-28 25 -3 0 5 -11 18 -25z"/>
<path d="M2780 915 c30 -30 57 -55 59 -55 3 0 -19 25 -49 55 -30 30 -57 55
-59 55 -3 0 19 -25 49 -55z"/>
<path d="M2890 817 c0 -2 15 -16 33 -33 l32 -29 -29 33 c-28 30 -36 37 -36 29z"/>
<path d="M2980 735 c13 -14 26 -25 28 -25 3 0 -5 11 -18 25 -13 14 -26 25 -28
25 -3 0 5 -11 18 -25z"/>
<path d="M3020 706 c0 -7 145 -116 193 -145 58 -35 44 -18 -20 24 -32 21 -84
58 -115 82 -32 24 -58 42 -58 39z"/>
<path d="M3275 525 c11 -9 29 -21 40 -26 l20 -10 -20 16 c-11 9 -29 21 -40 26
l-20 10 20 -16z"/>
<path d="M3340 486 c0 -3 14 -12 30 -21 17 -9 30 -13 30 -11 0 3 -13 12 -30
21 -16 9 -30 13 -30 11z"/>
<path d="M3410 445 c0 -7 121 -67 126 -63 2 2 -26 18 -61 36 -36 17 -65 30
-65 27z"/>
<path d="M3629 340 c46 -23 88 -39 93 -38 5 2 -28 19 -74 38 -113 48 -118 47
-19 0z"/>
<path d="M3760 287 c53 -31 367 -119 415 -116 l20 1 -20 5 c-132 30 -236 58
-310 82 -50 16 -99 32 -110 36 -13 4 -11 1 5 -8z"/>
<path d="M4230 160 c25 -8 87 -13 79 -6 -2 2 -26 6 -54 9 -34 4 -42 3 -25 -3z"/>
<path d="M4358 143 c7 -3 16 -2 19 1 4 3 -2 6 -13 5 -11 0 -14 -3 -6 -6z"/>
</g>
</svg>
