<svg width="86" height="86" viewBox="0 0 86 86" fill="none" xmlns="http://www.w3.org/2000/svg">
<g clip-path="url(#clip0_627_969)">
<path d="M43 0C34.4954 0 26.1818 2.52191 19.1105 7.24681C12.0392 11.9717 6.52777 18.6874 3.2732 26.5446C0.0186313 34.4018 -0.832912 43.0477 0.826252 51.3889C2.48542 59.7301 6.58077 67.3919 12.5944 73.4056C18.6081 79.4193 26.27 83.5146 34.6111 85.1738C42.9523 86.8329 51.5982 85.9814 59.4554 82.7268C67.3126 79.4723 74.0283 73.9608 78.7532 66.8895C83.4781 59.8182 86 51.5046 86 43C85.9877 31.5995 81.4534 20.6694 73.392 12.608C65.3306 4.54663 54.4005 0.0123305 43 0V0ZM78.8333 43C78.8376 50.0223 76.7656 56.8891 72.8778 62.737L68.6065 58.4621C68.2716 58.1263 68.0834 57.6714 68.0833 57.1972V53.75C68.0833 50.8989 66.9508 48.1646 64.9347 46.1486C62.9187 44.1326 60.1844 43 57.3333 43H46.5833C45.633 43 44.7216 42.6225 44.0496 41.9505C43.3775 41.2785 43 40.367 43 39.4167V37.625C43 37.1498 43.1888 36.6941 43.5248 36.3581C43.8608 36.0221 44.3165 35.8333 44.7917 35.8333C47.1676 35.8333 49.4462 34.8895 51.1262 33.2095C52.8062 31.5295 53.75 29.2509 53.75 26.875V23.2917C53.75 22.8165 53.9388 22.3608 54.2748 22.0248C54.6108 21.6888 55.0665 21.5 55.5417 21.5H60.4831C62.8567 21.4932 65.1318 20.5507 66.8148 18.877L68.1658 17.5261C71.5455 20.8517 74.2294 24.8169 76.0609 29.1904C77.8924 33.564 78.8349 38.2584 78.8333 43ZM7.34227 46.4508L18.6584 57.7669C19.6542 58.7692 20.8392 59.5637 22.1445 60.1044C23.4498 60.6451 24.8494 60.9212 26.2623 60.9167H35.8334C36.7837 60.9167 37.6951 61.2942 38.3671 61.9662C39.0392 62.6382 39.4167 63.5496 39.4167 64.5V78.6506C31.1757 77.8094 23.4794 74.1434 17.6333 68.2744C11.7873 62.4055 8.15131 54.6949 7.34227 46.4508V46.4508ZM46.5833 78.6506V64.5C46.5833 61.6489 45.4508 58.9146 43.4347 56.8986C41.4187 54.8826 38.6844 53.75 35.8334 53.75H26.2623C25.7911 53.7504 25.3245 53.6578 24.8892 53.4777C24.4539 53.2975 24.0584 53.0333 23.7253 52.7001L7.75077 36.7256C8.77623 30.8962 11.2328 25.4126 14.9001 20.7668C18.5675 16.1209 23.3308 12.4582 28.7627 10.1072C34.1946 7.75619 40.1252 6.79047 46.0224 7.29667C51.9196 7.80288 57.5989 9.76518 62.5507 13.0075L61.748 13.8102C61.4107 14.1428 60.9568 14.3305 60.4831 14.3333H55.5417C53.1658 14.3333 50.8872 15.2772 49.2072 16.9572C47.5272 18.6372 46.5833 20.9158 46.5833 23.2917V26.875C46.5833 27.3502 46.3946 27.8059 46.0586 28.1419C45.7226 28.4779 45.2669 28.6667 44.7917 28.6667C42.4158 28.6667 40.1372 29.6105 38.4572 31.2905C36.7772 32.9705 35.8334 35.2491 35.8334 37.625V39.4167C35.8334 42.2677 36.9659 45.0021 38.982 47.0181C40.998 49.0341 43.7323 50.1667 46.5833 50.1667H57.3333C58.2837 50.1667 59.1951 50.5442 59.8672 51.2162C60.5392 51.8882 60.9167 52.7996 60.9167 53.75V57.1972C60.9234 59.5707 61.8659 61.8459 63.5397 63.5289L68.3306 68.3198C62.495 74.1757 54.8093 77.8267 46.5833 78.6506V78.6506Z" fill="black"/>
</g>
<defs>
<clipPath id="clip0_627_969">
<rect width="86" height="86" fill="white"/>
</clipPath>
</defs>
</svg>
